<svg width="600" height="1499" viewBox="0 0 600 1499" fill="none" xmlns="http://www.w3.org/2000/svg">
<g style="mix-blend-mode:darken" opacity="0.04" clip-path="url(#clip0_7_40984)">
<mask id="mask0_7_40984" style="mask-type:luminance" maskUnits="userSpaceOnUse" x="0" y="0" width="600" height="1499">
<path d="M599.6 1498.6L599.6 0.602612H0.401115L0.401115 1498.6H599.6Z" fill="white"/>
</mask>
<g mask="url(#mask0_7_40984)">
<path d="M227.51 1135.51L346.542 1198.71L117.208 1231.83C117.208 1231.83 331.31 1244.97 349.766 1297.87C374.451 1368.63 187.565 1358.49 187.565 1358.49L479.618 1408.94" stroke="black" stroke-width="43.375" stroke-miterlimit="10" stroke-linejoin="bevel"/>
<path d="M239.376 1458.19C156.766 1456.17 87.9388 1382.35 123.085 1296.75" stroke="black" stroke-width="43.375" stroke-miterlimit="10" stroke-linejoin="bevel"/>
<path d="M492.378 980.956L625.193 1202.02L510.98 1201.24L559.023 1304.86L415.653 1302.21" stroke="black" stroke-width="43.375" stroke-miterlimit="10" stroke-linejoin="bevel"/>
<path d="M497.999 1093.63L418.05 1231.08L409.791 1013.99L308.327 1102.48" stroke="black" stroke-width="43.375" stroke-miterlimit="10" stroke-linejoin="bevel"/>
<path d="M177.367 1564.97L369.899 1480.8L286.5 1434.01" stroke="black" stroke-width="43.375" stroke-miterlimit="10" stroke-linejoin="bevel"/>
<path d="M400.676 1570.15C423.218 1459.95 622.792 1448.59 646.492 1557.89" stroke="black" stroke-width="43.375" stroke-miterlimit="10" stroke-linejoin="bevel"/>
<path d="M121.916 1173.71C132.092 1114.87 180.184 1069.6 247.543 1061.33L76.7879 1015.76" stroke="black" stroke-width="43.375" stroke-miterlimit="10" stroke-linejoin="bevel"/>
<path d="M624.212 1254.15C641.528 1342.34 602.948 1396.31 519.514 1412.77" stroke="black" stroke-width="43.375" stroke-miterlimit="10" stroke-linejoin="bevel"/>
<path d="M123.092 1469.4L100.989 1565.71L-37.3594 1446.39" stroke="black" stroke-width="43.375" stroke-miterlimit="10" stroke-linejoin="bevel"/>
<path d="M154.361 137.388L91.3157 261.006L203.618 236.787L206.863 332.679" stroke="black" stroke-width="43.375" stroke-miterlimit="10" stroke-linejoin="bevel"/>
<path d="M131.649 363.618C131.649 363.618 247.543 432.637 289.155 369.812C339.197 294.258 227.826 160.079 227.826 160.079L412.769 247.485L266.218 33.6332L493.558 183.991" stroke="black" stroke-width="43.375" stroke-miterlimit="10" stroke-linejoin="bevel"/>
<path d="M656.962 40.4838L461.703 68.9589L547.829 -62.6352" stroke="black" stroke-width="43.375" stroke-miterlimit="10" stroke-linejoin="bevel"/>
<path d="M92.5905 -68.6328L209.017 85.6607C107.775 47.0065 34.5697 61.9994 36.5356 173.885L-32.9247 84.0204" stroke="black" stroke-width="43.375" stroke-miterlimit="10" stroke-linejoin="bevel"/>
<path d="M198.113 -28.8947C273.677 -60.5289 362.598 -30.145 391.799 41.5284" stroke="black" stroke-width="43.375" stroke-miterlimit="10" stroke-linejoin="bevel"/>
<path d="M43.0542 39.6498L-35.521 -48.573" stroke="black" stroke-width="43.375" stroke-miterlimit="10" stroke-linejoin="bevel"/>
<path d="M75.9771 1424.29L-45.6254 1381.27L57.6162 1310.13" stroke="black" stroke-width="43.375" stroke-miterlimit="10" stroke-linejoin="bevel"/>
<path d="M159.08 457.413C159.08 457.413 44.048 599.876 130.764 663.881C208.889 721.544 277.715 652.791 277.715 652.791L280.306 852.062" stroke="black" stroke-width="43.375" stroke-miterlimit="10" stroke-linejoin="bevel"/>
<path d="M182.662 625.404L241.078 511.036L272.884 589.991" stroke="black" stroke-width="43.375" stroke-miterlimit="10" stroke-linejoin="bevel"/>
<path d="M61.1554 825.725L127.225 730.836" stroke="black" stroke-width="43.375" stroke-miterlimit="10" stroke-linejoin="bevel"/>
<path d="M510.371 452.694C510.371 452.694 472.651 532.993 528.068 573.269C582.044 612.498 633.366 573.33 633.366 573.33L543.995 752.957" stroke="black" stroke-width="43.375" stroke-miterlimit="10" stroke-linejoin="bevel"/>
<path d="M564.937 999.834L631.393 896.6L464.493 912.344L615.669 777.439" stroke="black" stroke-width="43.375" stroke-miterlimit="10" stroke-linejoin="bevel"/>
<path d="M36.4678 726.411L-61.8596 476.394L49.3575 529.087L58.2061 414.644" stroke="black" stroke-width="43.375" stroke-miterlimit="10" stroke-linejoin="bevel"/>
<path d="M-39.1288 390.163L87.8486 333.975C1.82692 310.089 -32.1869 229.101 -28.5104 154.79" stroke="black" stroke-width="43.375" stroke-miterlimit="10" stroke-linejoin="bevel"/>
<path d="M-54.4665 958.54L94.4854 944.087L-33.4707 796.524" stroke="black" stroke-width="43.375" stroke-miterlimit="10" stroke-linejoin="bevel"/>
<path d="M560.807 519.058L635.726 412.285L528.952 360.373L643.984 247.701" stroke="black" stroke-width="43.375" stroke-miterlimit="10" stroke-linejoin="bevel"/>
<path d="M-65.2324 1268.65C69.8087 1255.69 97.1397 1067.59 -46.2079 1015.76" stroke="black" stroke-width="42.16" stroke-miterlimit="10" stroke-linejoin="bevel"/>
<path d="M408.566 959.878L339.002 757.381C339.002 757.381 421.926 854.682 459.239 793.376C491.198 740.864 340.477 595.452 340.477 595.452L520.104 695.441" stroke="black" stroke-width="43.375" stroke-miterlimit="10" stroke-linejoin="bevel"/>
<path d="M298.888 1028.15L303.312 906.923L166.159 959.72L183.352 785.107" stroke="black" stroke-width="43.375" stroke-miterlimit="10" stroke-linejoin="bevel"/>
<path d="M354.192 308.904C409.053 315.098 450.896 360.35 461.109 411.083L482.35 248.291" stroke="black" stroke-width="43.375" stroke-miterlimit="10" stroke-linejoin="bevel"/>
<path d="M553.728 262.117L539.57 121.026L630.417 192.84" stroke="black" stroke-width="43.375" stroke-miterlimit="10" stroke-linejoin="bevel"/>
<path d="M442.236 578.639L394.088 417.96L341.635 526.625L269.393 444.73" stroke="black" stroke-width="43.375" stroke-miterlimit="10" stroke-linejoin="bevel"/>
</g>
</g>
<defs>
<clipPath id="clip0_7_40984">
<rect width="1498" height="599.2" fill="white" transform="matrix(0 -1 1 0 0.400146 1498.6)"/>
</clipPath>
</defs>
</svg>
