<svg width="1498" height="600" viewBox="0 0 1498 600" fill="none" xmlns="http://www.w3.org/2000/svg">
<g style="mix-blend-mode:darken" opacity="0.04" clip-path="url(#clip0_986_8874)">
<mask id="mask0_986_8874" style="mask-type:luminance" maskUnits="userSpaceOnUse" x="0" y="0" width="1498" height="600">
<path d="M0 599.2H1498V0.0012207H0V599.2Z" fill="white"/>
</mask>
<g mask="url(#mask0_986_8874)">
<path d="M363.088 227.109L299.895 346.141L266.769 116.808C266.769 116.808 253.635 330.91 200.733 349.366C129.974 374.05 140.114 187.165 140.114 187.165L89.6553 479.218" stroke="black" stroke-width="43.375" stroke-miterlimit="10" stroke-linejoin="bevel"/>
<path d="M40.4082 238.977C42.4264 156.367 116.253 87.5389 201.847 122.685" stroke="black" stroke-width="43.375" stroke-miterlimit="10" stroke-linejoin="bevel"/>
<path d="M517.644 491.979L296.577 624.794L297.365 510.58L193.736 558.623L196.39 415.254" stroke="black" stroke-width="43.375" stroke-miterlimit="10" stroke-linejoin="bevel"/>
<path d="M404.971 497.599L267.523 417.65L484.609 409.391L396.123 307.927" stroke="black" stroke-width="43.375" stroke-miterlimit="10" stroke-linejoin="bevel"/>
<path d="M-66.3656 176.967L17.7965 369.499L64.5937 286.1" stroke="black" stroke-width="43.375" stroke-miterlimit="10" stroke-linejoin="bevel"/>
<path d="M-71.5533 400.276C38.646 422.818 50.0084 622.392 -59.2867 646.092" stroke="black" stroke-width="43.375" stroke-miterlimit="10" stroke-linejoin="bevel"/>
<path d="M324.891 121.516C383.735 131.692 428.998 179.785 437.269 247.144L482.839 76.3885" stroke="black" stroke-width="43.375" stroke-miterlimit="10" stroke-linejoin="bevel"/>
<path d="M244.455 623.813C156.263 641.128 102.29 602.549 85.8305 519.114" stroke="black" stroke-width="43.375" stroke-miterlimit="10" stroke-linejoin="bevel"/>
<path d="M29.1959 122.692L-67.1102 100.589L52.2056 -37.7593" stroke="black" stroke-width="43.375" stroke-miterlimit="10" stroke-linejoin="bevel"/>
<path d="M1361.21 153.961L1237.59 90.9156L1261.81 203.218L1165.92 206.463" stroke="black" stroke-width="43.375" stroke-miterlimit="10" stroke-linejoin="bevel"/>
<path d="M1134.98 131.25C1134.98 131.25 1065.96 247.143 1128.79 288.756C1204.34 338.798 1338.52 227.427 1338.52 227.427L1251.11 412.37L1464.97 265.819L1314.61 493.158" stroke="black" stroke-width="43.375" stroke-miterlimit="10" stroke-linejoin="bevel"/>
<path d="M1458.12 656.562L1429.64 461.303L1561.24 547.429" stroke="black" stroke-width="43.375" stroke-miterlimit="10" stroke-linejoin="bevel"/>
<path d="M1567.23 92.191L1412.94 208.617C1451.59 107.375 1436.6 34.1703 1324.72 36.1362L1414.58 -33.3241" stroke="black" stroke-width="43.375" stroke-miterlimit="10" stroke-linejoin="bevel"/>
<path d="M1527.49 197.713C1559.13 273.276 1528.75 362.198 1457.07 391.398" stroke="black" stroke-width="43.375" stroke-miterlimit="10" stroke-linejoin="bevel"/>
<path d="M1458.95 42.6543L1547.17 -35.9209" stroke="black" stroke-width="43.375" stroke-miterlimit="10" stroke-linejoin="bevel"/>
<path d="M74.307 75.5771L117.325 -46.0253L188.474 57.2163" stroke="black" stroke-width="43.375" stroke-miterlimit="10" stroke-linejoin="bevel"/>
<path d="M1041.19 158.68C1041.19 158.68 898.724 43.6481 834.72 130.364C777.056 208.489 845.809 277.315 845.809 277.315L646.539 279.906" stroke="black" stroke-width="43.375" stroke-miterlimit="10" stroke-linejoin="bevel"/>
<path d="M873.196 182.262L987.564 240.678L908.609 272.484" stroke="black" stroke-width="43.375" stroke-miterlimit="10" stroke-linejoin="bevel"/>
<path d="M672.875 60.7555L767.764 126.825" stroke="black" stroke-width="43.375" stroke-miterlimit="10" stroke-linejoin="bevel"/>
<path d="M1045.91 509.97C1045.91 509.97 965.607 472.25 925.331 527.667C886.102 581.644 925.27 632.966 925.27 632.966L745.643 543.595" stroke="black" stroke-width="43.375" stroke-miterlimit="10" stroke-linejoin="bevel"/>
<path d="M498.766 564.537L602 630.993L586.256 464.093L721.161 615.269" stroke="black" stroke-width="43.375" stroke-miterlimit="10" stroke-linejoin="bevel"/>
<path d="M772.189 36.0675L1022.21 -62.26L969.513 48.9571L1083.96 57.8057" stroke="black" stroke-width="43.375" stroke-miterlimit="10" stroke-linejoin="bevel"/>
<path d="M1108.44 -39.5282L1164.63 87.4492C1188.51 1.4275 1269.5 -32.5863 1343.81 -28.9098" stroke="black" stroke-width="43.375" stroke-miterlimit="10" stroke-linejoin="bevel"/>
<path d="M540.06 -54.8659L554.513 94.0859L702.076 -33.8702" stroke="black" stroke-width="43.375" stroke-miterlimit="10" stroke-linejoin="bevel"/>
<path d="M979.542 560.408L1086.32 635.326L1138.23 528.553L1250.9 643.585" stroke="black" stroke-width="43.375" stroke-miterlimit="10" stroke-linejoin="bevel"/>
<path d="M229.952 -65.6321C242.909 69.4091 431.007 96.74 482.839 -46.6075" stroke="black" stroke-width="42.16" stroke-miterlimit="10" stroke-linejoin="bevel"/>
<path d="M538.722 408.166L741.219 338.602C741.219 338.602 643.918 421.526 705.224 458.839C757.736 490.798 903.148 340.077 903.148 340.077L803.159 519.704" stroke="black" stroke-width="43.375" stroke-miterlimit="10" stroke-linejoin="bevel"/>
<path d="M470.451 298.489L591.677 302.913L538.88 165.76L713.493 182.953" stroke="black" stroke-width="43.375" stroke-miterlimit="10" stroke-linejoin="bevel"/>
<path d="M1189.7 353.792C1183.5 408.654 1138.25 450.496 1087.52 460.709L1250.31 481.95" stroke="black" stroke-width="43.375" stroke-miterlimit="10" stroke-linejoin="bevel"/>
<path d="M1236.48 553.329L1377.57 539.171L1305.76 630.017" stroke="black" stroke-width="43.375" stroke-miterlimit="10" stroke-linejoin="bevel"/>
<path d="M919.961 441.836L1080.64 393.688L971.975 341.235L1053.87 268.993" stroke="black" stroke-width="43.375" stroke-miterlimit="10" stroke-linejoin="bevel"/>
</g>
</g>
<defs>
<clipPath id="clip0_986_8874">
<rect width="1498" height="599.2" fill="white"/>
</clipPath>
</defs>
</svg>
